<?xml version="1.0" encoding="UTF-8"?>
<!DOCTYPE svg PUBLIC "-//W3C//DTD SVG 1.1//EN" "http://www.w3.org/Graphics/SVG/1.1/DTD/svg11.dtd">
<svg xmlns="http://www.w3.org/2000/svg" version="1.1" width="945px" height="219px" style="shape-rendering:geometricPrecision; text-rendering:geometricPrecision; image-rendering:optimizeQuality; fill-rule:evenodd; clip-rule:evenodd" xmlns:xlink="http://www.w3.org/1999/xlink">
<g><path style="opacity:1" fill="#f34336" d="M 76.5,10.5 C 101.836,10.3334 127.169,10.5 152.5,11C 167.375,11.5414 182.042,13.5414 196.5,17C 206.492,21.1322 211.992,28.6322 213,39.5C 214.434,46.1017 215.434,52.7683 216,59.5C 217.524,87.8157 217.857,116.149 217,144.5C 216.85,159.855 214.517,174.855 210,189.5C 207.192,196.661 202.026,201.161 194.5,203C 167.887,207.696 141.054,209.863 114,209.5C 94.0913,209.513 74.2579,208.346 54.5,206C 44.246,205.255 35.4126,201.422 28,194.5C 25.7388,190.05 24.0722,185.383 23,180.5C 20.935,168.582 19.6017,156.582 19,144.5C 18.3333,121.5 18.3333,98.5 19,75.5C 19.5473,61.6926 21.214,48.0259 24,34.5C 25.6287,25.5377 30.7954,19.7044 39.5,17C 51.7569,13.5997 64.0903,11.433 76.5,10.5 Z"/></g>
<g><path style="opacity:0.957" fill="#43434c" d="M 275.5,32.5 C 281.815,31.871 287.648,33.2043 293,36.5C 296.542,42.4293 296.042,47.9293 291.5,53C 284.317,55.9362 276.984,56.2695 269.5,54C 263.957,48.9037 263.124,43.0704 267,36.5C 269.738,34.7112 272.572,33.3779 275.5,32.5 Z"/></g>
<g><path style="opacity:0.988" fill="#43434c" d="M 529.5,35.5 C 531.5,35.5 533.5,35.5 535.5,35.5C 535.333,47.8378 535.5,60.1712 536,72.5C 545.997,65.2114 557.163,62.7114 569.5,65C 584.2,68.3687 592.7,77.5353 595,92.5C 596.117,118.175 596.284,143.842 595.5,169.5C 586.833,169.5 578.167,169.5 569.5,169.5C 569.939,145.462 569.439,121.462 568,97.5C 565.567,90.4467 560.567,87.4467 553,88.5C 545.732,87.969 540.066,90.6357 536,96.5C 535.5,120.831 535.333,145.164 535.5,169.5C 526.833,169.5 518.167,169.5 509.5,169.5C 509.5,125.167 509.5,80.8333 509.5,36.5C 516.354,36.824 523.021,36.4907 529.5,35.5 Z"/></g>
<g><path style="opacity:0.968" fill="#43434c" d="M 820.5,41.5 C 823.833,41.5 827.167,41.5 830.5,41.5C 830.5,49.5 830.5,57.5 830.5,65.5C 838.167,65.5 845.833,65.5 853.5,65.5C 853.5,72.5 853.5,79.5 853.5,86.5C 845.833,86.5 838.167,86.5 830.5,86.5C 830.037,105.901 830.537,125.235 832,144.5C 833.637,146.81 835.804,148.31 838.5,149C 842.871,149.629 847.204,149.463 851.5,148.5C 851.612,155.18 851.946,161.847 852.5,168.5C 840.32,171.591 828.32,171.091 816.5,167C 807.561,160.56 803.395,151.726 804,140.5C 803.5,122.503 803.333,104.503 803.5,86.5C 799.833,86.5 796.167,86.5 792.5,86.5C 792.5,79.8333 792.5,73.1667 792.5,66.5C 796.833,66.5 801.167,66.5 805.5,66.5C 806.168,58.6595 807.668,50.9929 810,43.5C 813.603,42.8648 817.103,42.1982 820.5,41.5 Z"/></g>
<g><path style="opacity:1" fill="#fffcfb" d="M 157.5,52.5 C 170.374,51.2056 175.874,56.8722 174,69.5C 170.628,76.4329 165.128,78.9329 157.5,77C 150.892,73.4411 148.392,67.9411 150,60.5C 152.028,57.3078 154.528,54.6411 157.5,52.5 Z"/></g>
<g><path style="opacity:1" fill="#fffbfa" d="M 67.5,54.5 C 86.1696,54.3334 104.836,54.5001 123.5,55C 130.876,59.2675 132.376,65.1008 128,72.5C 126.421,74.0412 124.587,75.2078 122.5,76C 104.5,76.6667 86.5,76.6667 68.5,76C 58.2654,69.2179 57.9321,62.0512 67.5,54.5 Z"/></g>
<g><path style="opacity:0.968" fill="#43434c" d="M 367.5,63.5 C 389.032,64.2004 401.198,75.2004 404,96.5C 404.5,120.831 404.667,145.164 404.5,169.5C 395.5,169.5 386.5,169.5 377.5,169.5C 377.667,146.164 377.5,122.831 377,99.5C 375.043,91.1723 369.71,87.5056 361,88.5C 354.526,88.4074 349.193,90.7407 345,95.5C 344.5,120.164 344.333,144.831 344.5,169.5C 335.5,169.5 326.5,169.5 317.5,169.5C 317.5,135.167 317.5,100.833 317.5,66.5C 323.513,66.1307 329.513,65.964 335.5,66C 337.688,68.1954 339.521,70.6954 341,73.5C 349.01,67.6678 357.843,64.3345 367.5,63.5 Z"/></g>
<g><path style="opacity:0.974" fill="#43434c" d="M 449.5,64.5 C 462.614,63.4083 475.28,65.2417 487.5,70C 488.207,77.137 487.874,84.3037 486.5,91.5C 478.108,89.1215 469.608,87.4549 461,86.5C 457.175,87.2104 453.342,88.0437 449.5,89C 444.443,93.0735 444.443,97.0735 449.5,101C 460.394,104.78 471.06,109.114 481.5,114C 491.77,122.142 495.27,132.642 492,145.5C 489.688,157.81 482.522,165.644 470.5,169C 453.775,173.201 437.608,171.701 422,164.5C 421.672,157.119 422.172,149.786 423.5,142.5C 427.802,143.979 432.135,145.479 436.5,147C 445.522,148.932 454.522,148.932 463.5,147C 467.854,143.21 468.521,138.877 465.5,134C 455.659,129.609 445.659,125.609 435.5,122C 422.302,114.085 417.469,102.585 421,87.5C 426.051,74.2354 435.551,66.5688 449.5,64.5 Z"/></g>
<g><path style="opacity:0.978" fill="#43434c" d="M 647.5,64.5 C 688.229,60.2279 707.562,78.5612 705.5,119.5C 706.135,159.027 686.802,176.194 647.5,171C 630.252,169.074 619.086,159.907 614,143.5C 608.914,124.294 609.581,105.294 616,86.5C 622.69,73.5821 633.19,66.2487 647.5,64.5 Z M 653.5,86.5 C 666.109,84.2018 673.609,89.2018 676,101.5C 678.224,114.243 677.89,126.91 675,139.5C 672.96,144.876 669.127,148.043 663.5,149C 650.293,151.662 642.459,146.496 640,133.5C 637.838,121.427 638.171,109.427 641,97.5C 642.93,91.1418 647.096,87.4751 653.5,86.5 Z"/></g>
<g><path style="opacity:0.967" fill="#43434c" d="M 767.5,64.5 C 773.196,64.0254 778.696,64.6921 784,66.5C 784.389,74.8398 784.222,83.1731 783.5,91.5C 773.852,89.3306 764.852,90.8306 756.5,96C 752.577,99.6768 750.077,104.177 749,109.5C 748.5,129.497 748.333,149.497 748.5,169.5C 739.5,169.5 730.5,169.5 721.5,169.5C 721.5,135.167 721.5,100.833 721.5,66.5C 728.602,66.3312 735.602,66.3312 742.5,66.5C 743.406,71.508 744.406,76.508 745.5,81.5C 750.574,72.7427 757.907,67.076 767.5,64.5 Z"/></g>
<g><path style="opacity:0.974" fill="#43434c" d="M 893.5,64.5 C 906.214,63.4835 918.547,65.1502 930.5,69.5C 931.631,76.7566 931.297,83.9233 929.5,91C 924.546,90.1822 919.546,89.1822 914.5,88C 907.101,87.1519 899.767,87.4853 892.5,89C 888.5,93 888.5,97 892.5,101C 902.167,104.667 911.833,108.333 921.5,112C 928.554,115.389 933.054,120.889 935,128.5C 939.492,150.617 930.992,164.45 909.5,170C 894.069,172.717 879.236,170.884 865,164.5C 865.001,157.151 865.501,149.818 866.5,142.5C 870.802,143.979 875.135,145.479 879.5,147C 887.779,148.497 896.112,148.831 904.5,148C 911.194,144.103 912.194,139.103 907.5,133C 899.578,129.803 891.578,126.803 883.5,124C 867.556,117.954 861.056,106.454 864,89.5C 868.185,74.4804 878.018,66.147 893.5,64.5 Z"/></g>
<g><path style="opacity:0.959" fill="#43434c" d="M 285.5,65.5 C 288.167,65.5 290.833,65.5 293.5,65.5C 293.5,100.167 293.5,134.833 293.5,169.5C 284.5,169.5 275.5,169.5 266.5,169.5C 266.5,135.167 266.5,100.833 266.5,66.5C 273.022,66.8235 279.355,66.4902 285.5,65.5 Z"/></g>
<g><path style="opacity:1" fill="#fffafa" d="M 114.5,96.5 C 128.586,97.3387 133.086,104.339 128,117.5C 119.447,124.992 112.114,123.992 106,114.5C 103.76,105.983 106.594,99.9826 114.5,96.5 Z"/></g>
<g><path style="opacity:1" fill="#fffafa" d="M 158.5,96.5 C 170.705,96.5334 175.871,102.533 174,114.5C 169.293,122.624 162.793,124.457 154.5,120C 146.872,110.55 148.206,102.717 158.5,96.5 Z"/></g>
<g><path style="opacity:1" fill="#fff9f9" d="M 69.5,141.5 C 81.1553,140.712 86.6553,146.045 86,157.5C 81.9082,166.639 75.4082,169.139 66.5,165C 57.8302,155.859 58.8302,148.026 69.5,141.5 Z"/></g>
<g><path style="opacity:1" fill="#fffafa" d="M 113.5,141.5 C 127.004,141.162 132.17,147.496 129,160.5C 122.113,169.31 114.78,169.643 107,161.5C 103.408,152.834 105.574,146.168 113.5,141.5 Z"/></g>
<g><path style="opacity:1" fill="#fffafa" d="M 158.5,141.5 C 172.013,141.849 176.846,148.515 173,161.5C 166.258,168.908 159.258,169.241 152,162.5C 147.298,153.263 149.464,146.263 158.5,141.5 Z"/></g>
</svg>
